<?xml version="1.0" encoding="utf-8"?>
<!-- Generator: Adobe Illustrator 23.0.2, SVG Export Plug-In . SVG Version: 6.00 Build 0)  -->
<svg version="1.1" id="Layer_1" xmlns="http://www.w3.org/2000/svg" xmlns:xlink="http://www.w3.org/1999/xlink" x="0px" y="0px"
	 viewBox="0 0 32 32" style="enable-background:new 0 0 32 32;" xml:space="preserve">
<style type="text/css">
	.st0{fill:none;stroke:#000000;stroke-miterlimit:10;}
	.st1{fill:#52205E;}
</style>
<g>
	<g>
		<path class="st0" d="M11.83,7.23"/>
	</g>
</g>
<g>
	<path class="st1" d="M19.88,22.31l-1.87-3.98h-7.94l-2,3.98l-0.11,0.28C7.95,22.6,7.84,22.8,7.65,23.2
		c-0.29,0.6-0.44,1.21-0.44,1.84c0,1.08,0.59,1.85,1.77,2.31v0.38c-0.24,0-0.65-0.04-1.24-0.11c-0.83-0.1-1.57-0.15-2.23-0.15
		c-0.6,0-1.35,0.05-2.23,0.15c-0.6,0.07-1,0.11-1.2,0.11v-0.38c1.54-0.8,2.95-2.45,4.21-4.94l6.99-13.82
		c-0.53-1.1-1.27-1.95-2.2-2.55c-0.93-0.6-2.02-0.93-3.27-0.98V4.68h0.74c0.66,0,1.56,0.04,2.72,0.13c1.21,0.09,1.99,0.13,2.36,0.13
		l10.63,22.55c-1.36,0.03-3,0.11-4.91,0.26v-0.38c1.07-0.19,1.6-0.77,1.6-1.75C20.93,24.87,20.58,23.77,19.88,22.31z M10.89,16.72
		h6.36l-3.05-6.5L10.89,16.72z M25.92,27.48L15.29,4.93h2.06c0.28,0.74,0.67,1.68,1.18,2.8c0.56,1.21,0.88,1.93,0.95,2.16
		c0.07,0.13,0.13,0.28,0.19,0.45l4.95,10.42c1.73,3.62,3.57,5.82,5.52,6.59v0.38C28.22,27.57,26.82,27.48,25.92,27.48z"/>
</g>
<path d="M16.84,13.05"/>
</svg>
